<svg width="180" height="180" viewBox="0 0 180 180" fill="none" xmlns="http://www.w3.org/2000/svg">
<ellipse opacity="0.1" cx="90" cy="174.598" rx="90" ry="5.4" fill="#9295A4"/>
<path d="M157.642 85.2598C157.642 81.9461 154.956 79.2598 151.642 79.2598H67.4562C64.1424 79.2598 61.4562 81.9461 61.4562 85.2598V140.045C61.4562 143.359 64.1424 146.045 67.4562 146.045H122.174L136.85 159.632C138.13 160.818 140.208 159.91 140.208 158.165V146.045H151.642C154.956 146.045 157.642 143.359 157.642 140.045V85.2598Z" fill="#9295A4" stroke="#1760B9" stroke-width="4" stroke-linejoin="round"/>
<path d="M17.8999 56.4077C17.8999 51.9894 21.4816 48.4077 25.8999 48.4077H122.419C126.838 48.4077 130.419 51.9894 130.419 56.4077V119.171C130.419 123.59 126.838 127.171 122.419 127.171H59.3914L41.6587 143.722C40.3802 144.915 38.294 144.009 38.294 142.26V127.171H25.8999C21.4816 127.171 17.8999 123.59 17.8999 119.171V56.4077Z" fill="white" stroke="#1760B9" stroke-width="4" stroke-linejoin="round"/>
<circle cx="47.4365" cy="87.79" r="8.43895" fill="#76E6C1"/>
<circle cx="74.1592" cy="87.79" r="8.43895" fill="#76E6C1"/>
<circle cx="100.883" cy="87.79" r="8.43895" fill="#76E6C1"/>
<path d="M134.836 28.7473C134.836 27.1089 133.508 25.7808 131.87 25.7808V25.7808C130.232 25.7808 128.903 27.1089 128.903 28.7473V38.5833C128.903 40.2217 130.232 41.5498 131.87 41.5498V41.5498C133.508 41.5498 134.836 40.2217 134.836 38.5833V28.7473Z" stroke="#76E6C1" stroke-width="4" stroke-linejoin="round"/>
<path d="M141.27 52.0122C139.631 52.0122 138.303 50.6841 138.303 49.0457V49.0457C138.303 47.4074 139.631 46.0792 141.27 46.0792L151.106 46.0792C152.744 46.0792 154.072 47.4074 154.072 49.0457V49.0457C154.072 50.6841 152.744 52.0122 151.106 52.0122L141.27 52.0122Z" stroke="#76E6C1" stroke-width="4" stroke-linejoin="round"/>
</svg>
