<svg width="250" height="251" viewBox="0 0 250 251" fill="none" xmlns="http://www.w3.org/2000/svg">
<g opacity="0.48">
<path fill-rule="evenodd" clip-rule="evenodd" d="M44.1461 179.804L47.1787 182.837L50.2211 179.796L51.5211 181.096L48.4782 184.136L51.5127 187.169L50.2091 188.472L47.1743 185.44L44.1341 188.481L42.8341 187.181L45.8749 184.141L42.8425 181.108L44.1461 179.804Z" fill="url(#paint0_linear_7003_20316)"/>
<path opacity="0.48" fill-rule="evenodd" clip-rule="evenodd" d="M181.746 27.099L184.778 30.1319L187.821 27.0906L189.121 28.3903L186.078 31.431L189.112 34.4637L187.809 35.767L184.774 32.7345L181.734 35.7753L180.434 34.4757L183.474 31.4354L180.442 28.4022L181.746 27.099Z" fill="#919EAB"/>
<path opacity="0.72" d="M128.079 218.907C128.65 218.338 129.423 218.018 130.229 218.018C131.035 218.018 131.808 218.338 132.378 218.907L134.543 221.071C134.826 221.353 135.053 221.69 135.207 222.059C135.36 222.429 135.44 222.826 135.44 223.226C135.44 223.627 135.361 224.024 135.207 224.394C135.053 224.763 134.828 225.098 134.544 225.38L132.378 227.546C131.808 228.115 131.035 228.435 130.229 228.435C129.423 228.435 128.65 228.115 128.079 227.546L125.914 225.382C125.631 225.1 125.404 224.763 125.251 224.394C125.097 224.024 125.018 223.627 125.018 223.226C125.018 222.826 125.097 222.429 125.251 222.059C125.404 221.69 125.629 221.355 125.913 221.072L128.079 218.907Z" fill="#919EAB"/>
<path fill-rule="evenodd" clip-rule="evenodd" d="M201.453 81.8347C201.453 81.8348 201.454 81.8346 201.453 81.8347L199.288 83.9994L198.374 83.0849L199.285 84.0022C199.243 84.0442 199.209 84.0942 199.186 84.1494C199.164 84.2044 199.152 84.2634 199.152 84.3231C199.152 84.3827 199.164 84.4418 199.186 84.4968C199.209 84.5519 199.243 84.602 199.285 84.644L199.288 84.6468L201.453 86.8114C201.454 86.8116 201.453 86.8113 201.453 86.8114C201.539 86.8968 201.656 86.945 201.777 86.945C201.898 86.945 202.014 86.8971 202.099 86.8119C202.099 86.8118 202.099 86.8121 202.099 86.8119L204.268 84.644C204.31 84.6019 204.344 84.5519 204.367 84.4968C204.39 84.4416 204.401 84.3825 204.401 84.3231C204.401 84.2636 204.39 84.2046 204.367 84.1494C204.344 84.0942 204.31 84.0442 204.268 84.0022L204.265 83.9994L202.1 81.8347C202.1 81.8346 202.1 81.8349 202.1 81.8347C202.014 81.7495 201.898 81.7011 201.777 81.7011C201.656 81.7011 201.539 81.7494 201.453 81.8347ZM197.461 82.1691L199.627 80.0034C200.198 79.4344 200.971 79.1147 201.777 79.1147C202.582 79.1147 203.356 79.4343 203.926 80.0034L203.927 80.0045L206.091 82.1675C206.091 82.168 206.092 82.1685 206.092 82.169C206.376 82.4512 206.601 82.7865 206.755 83.1557C206.908 83.5255 206.988 83.9222 206.988 84.3231C206.988 84.7239 206.908 85.1206 206.755 85.4904C206.601 85.8596 206.376 86.1949 206.092 86.4771C206.092 86.4776 206.091 86.4781 206.091 86.4786L203.926 88.6427C203.356 89.2118 202.582 89.5314 201.777 89.5314C200.971 89.5314 200.198 89.2118 199.627 88.6427L197.462 86.4786C197.462 86.4781 197.461 86.4776 197.461 86.477C197.177 86.1949 196.952 85.8596 196.799 85.4904C196.645 85.1204 196.565 84.7237 196.565 84.3231C196.565 83.9224 196.645 83.5257 196.799 83.1557C196.952 82.7865 197.177 82.4512 197.461 82.1691Z" fill="#919EAB"/>
<path opacity="0.48" fill-rule="evenodd" clip-rule="evenodd" d="M217.817 138.661C218.128 138.581 218.455 138.579 218.767 138.657C219.11 138.742 219.422 138.918 219.67 139.167C219.919 139.416 220.096 139.728 220.18 140.07C220.258 140.382 220.256 140.709 220.176 141.02L218.977 147.46C218.879 147.966 218.561 148.694 217.754 148.942C216.947 149.19 216.275 148.766 215.912 148.402L210.435 142.927C210.064 142.56 209.641 141.885 209.892 141.078C210.142 140.27 210.872 139.953 211.384 139.859C211.385 139.858 211.385 139.858 211.386 139.858L217.817 138.661ZM217.6 141.237L213.107 142.074L216.763 145.729L217.6 141.237Z" fill="#919EAB"/>
<path opacity="0.8" fill-rule="evenodd" clip-rule="evenodd" d="M213.458 196.888C213.769 196.807 214.095 196.806 214.408 196.883C214.75 196.968 215.062 197.145 215.311 197.393C215.56 197.642 215.736 197.954 215.821 198.296C215.899 198.609 215.897 198.936 215.817 199.247L214.617 205.687C214.52 206.193 214.202 206.921 213.395 207.169C212.588 207.417 211.916 206.993 211.552 206.629L206.076 201.154C205.705 200.786 205.282 200.112 205.532 199.304C205.783 198.497 206.513 198.179 207.025 198.085C207.025 198.085 207.026 198.085 207.027 198.085L213.458 196.888ZM213.24 199.464L208.748 200.3L212.404 203.955L213.24 199.464Z" fill="#637381"/>
<path opacity="0.8" fill-rule="evenodd" clip-rule="evenodd" d="M26.0423 151.485C25.6635 151.485 25.293 151.598 24.9779 151.808C24.6628 152.019 24.4174 152.318 24.2726 152.667C24.1276 153.017 24.0897 153.402 24.1636 153.773C24.2375 154.145 24.4198 154.486 24.6877 154.753C24.9554 155.021 25.2966 155.203 25.6685 155.277C26.0405 155.351 26.4257 155.313 26.7754 155.169C27.1252 155.024 27.4245 154.778 27.635 154.463C27.8454 154.148 27.9577 153.778 27.9577 153.4C27.9577 152.892 27.756 152.405 27.3968 152.046C27.0377 151.687 26.5505 151.485 26.0423 151.485ZM23.1483 149.069C24.0048 148.497 25.0119 148.191 26.0423 148.191C27.4236 148.191 28.7486 148.74 29.7256 149.717C30.7026 150.693 31.2515 152.018 31.2515 153.4C31.2515 154.43 30.9459 155.437 30.3735 156.293C29.8012 157.15 28.9876 157.818 28.0356 158.212C27.0834 158.606 26.0361 158.709 25.0261 158.508C24.0159 158.307 23.0876 157.811 22.3589 157.083C21.6304 156.354 21.1342 155.426 20.9331 154.416C20.7321 153.406 20.8352 152.358 21.2296 151.406C21.624 150.454 22.2918 149.641 23.1483 149.069Z" fill="#637381"/>
<path opacity="0.8" fill-rule="evenodd" clip-rule="evenodd" d="M113.63 38.837C113.251 38.837 112.881 38.9494 112.566 39.1599C112.251 39.3704 112.005 39.6693 111.86 40.0189C111.716 40.3687 111.678 40.7537 111.751 41.1251C111.825 41.4964 112.008 41.8375 112.276 42.1053C112.543 42.3729 112.885 42.5553 113.256 42.6292C113.628 42.7032 114.014 42.6653 114.363 42.5205C114.713 42.3756 115.012 42.1301 115.223 41.815C115.433 41.5002 115.546 41.1301 115.546 40.7516C115.546 40.2439 115.344 39.7569 114.985 39.3978C114.626 39.0388 114.138 38.837 113.63 38.837ZM110.736 36.421C111.593 35.8488 112.6 35.5432 113.63 35.5432C115.012 35.5432 116.336 36.0917 117.314 37.0685C118.291 38.0452 118.839 39.3701 118.839 40.7516C118.839 41.7818 118.534 42.7888 117.961 43.6453C117.389 44.5016 116.576 45.1694 115.624 45.5637C114.671 45.958 113.624 46.0606 112.614 45.8598C111.604 45.6589 110.676 45.1632 109.947 44.4346C109.218 43.7063 108.722 42.7782 108.521 41.7678C108.32 40.7575 108.423 39.7099 108.817 38.7582C109.212 37.8062 109.88 36.9931 110.736 36.421Z" fill="#637381"/>
</g>
<g opacity="0.48">
<path d="M58.333 103.079H191.666V163.396C191.666 172.163 184.559 179.269 175.793 179.269H74.206C65.4396 179.269 58.333 172.163 58.333 163.396V103.079Z" fill="url(#paint1_linear_7003_20316)"/>
<path fill-rule="evenodd" clip-rule="evenodd" d="M78.9679 82.4443C76.301 82.4443 74.2061 84.5393 74.2061 87.2062C74.2061 89.8726 76.301 91.9681 78.9679 91.9681C81.6349 91.9681 83.7298 89.8726 83.7298 87.2062C83.7298 84.5393 81.6349 82.4443 78.9679 82.4443Z" fill="#C4CDD5"/>
<path fill-rule="evenodd" clip-rule="evenodd" d="M94.0473 82.4443C91.3803 82.4443 89.2854 84.5393 89.2854 87.2062C89.2854 89.8726 91.3803 91.9681 94.0473 91.9681C96.7142 91.9681 98.8092 89.8726 98.8092 87.2062C98.8092 84.5393 96.7142 82.4443 94.0473 82.4443Z" fill="#C4CDD5"/>
<path fill-rule="evenodd" clip-rule="evenodd" d="M109.127 82.4443C106.46 82.4443 104.365 84.5393 104.365 87.2062C104.365 89.8726 106.46 91.9681 109.127 91.9681C111.794 91.9681 113.888 89.8726 113.888 87.2062C113.888 84.5393 111.794 82.4443 109.127 82.4443Z" fill="#C4CDD5"/>
<g filter="url(#filter0_di_7003_20316)">
<path fill-rule="evenodd" clip-rule="evenodd" d="M191.666 84.0319V103.079H58.333L58.333 84.0331C58.333 77.0194 64.0187 71.3333 71.0324 71.3333H178.968C185.981 71.3333 191.666 77.0188 191.666 84.0319ZM78.9679 82.4443C76.3009 82.4443 74.206 84.5392 74.206 87.2062C74.206 89.8726 76.3009 91.9681 78.9679 91.9681C81.6348 91.9681 83.7298 89.8726 83.7298 87.2062C83.7298 84.5392 81.6348 82.4443 78.9679 82.4443ZM94.0472 82.4443C91.3802 82.4443 89.2853 84.5392 89.2853 87.2062C89.2853 89.8726 91.3802 91.9681 94.0472 91.9681C96.7142 91.9681 98.8091 89.8726 98.8091 87.2062C98.8091 84.5392 96.7142 82.4443 94.0472 82.4443ZM104.365 87.2062C104.365 84.5392 106.46 82.4443 109.127 82.4443C111.793 82.4443 113.888 84.5392 113.888 87.2062C113.888 89.8726 111.793 91.9681 109.127 91.9681C106.46 91.9681 104.365 89.8726 104.365 87.2062Z" fill="#919EAB"/>
</g>
<path opacity="0.48" fill-rule="evenodd" clip-rule="evenodd" d="M171.512 113.125H132.752C130.61 113.125 128.876 114.856 128.876 116.995V163.43C128.876 165.568 130.61 167.299 132.752 167.299H171.512C173.654 167.299 175.387 165.568 175.387 163.43V116.995C175.387 114.856 173.654 113.125 171.512 113.125Z" fill="#637381"/>
<path opacity="0.24" fill-rule="evenodd" clip-rule="evenodd" d="M78.4883 120.864H93.9921C96.1345 120.864 97.8681 119.133 97.8681 116.995C97.8681 114.856 96.1345 113.125 93.9921 113.125H78.4883C76.3459 113.125 74.6123 114.856 74.6123 116.995C74.6123 119.133 76.3459 120.864 78.4883 120.864ZM74.6123 132.473C74.6123 130.334 76.3459 128.603 78.4883 128.603H117.248C119.39 128.603 121.124 130.334 121.124 132.473C121.124 134.612 119.39 136.343 117.248 136.343H78.4883C76.3459 136.343 74.6123 134.612 74.6123 132.473ZM78.4883 144.082C76.3459 144.082 74.6123 145.812 74.6123 147.951C74.6123 150.09 76.3459 151.821 78.4883 151.821H117.248C119.39 151.821 121.124 150.09 121.124 147.951C121.124 145.812 119.39 144.082 117.248 144.082H78.4883ZM74.6123 163.43C74.6123 161.291 76.3459 159.56 78.4883 159.56H117.248C119.39 159.56 121.124 161.291 121.124 163.43C121.124 165.568 119.39 167.299 117.248 167.299H78.4883C76.3459 167.299 74.6123 165.568 74.6123 163.43Z" fill="#637381"/>
</g>
<defs>
<filter id="filter0_di_7003_20316" x="50.333" y="63.3333" width="165.333" height="63.7458" filterUnits="userSpaceOnUse" color-interpolation-filters="sRGB">
<feFlood flood-opacity="0" result="BackgroundImageFix"/>
<feColorMatrix in="SourceAlpha" type="matrix" values="0 0 0 0 0 0 0 0 0 0 0 0 0 0 0 0 0 0 127 0" result="hardAlpha"/>
<feOffset dx="8" dy="8"/>
<feGaussianBlur stdDeviation="8"/>
<feColorMatrix type="matrix" values="0 0 0 0 0.270588 0 0 0 0 0.309804 0 0 0 0 0.356863 0 0 0 0.16 0"/>
<feBlend mode="normal" in2="BackgroundImageFix" result="effect1_dropShadow_7003_20316"/>
<feBlend mode="normal" in="SourceGraphic" in2="effect1_dropShadow_7003_20316" result="shape"/>
<feColorMatrix in="SourceAlpha" type="matrix" values="0 0 0 0 0 0 0 0 0 0 0 0 0 0 0 0 0 0 127 0" result="hardAlpha"/>
<feOffset dx="-2"/>
<feGaussianBlur stdDeviation="2"/>
<feComposite in2="hardAlpha" operator="arithmetic" k2="-1" k3="1"/>
<feColorMatrix type="matrix" values="0 0 0 0 0.270588 0 0 0 0 0.309804 0 0 0 0 0.356863 0 0 0 0.48 0"/>
<feBlend mode="normal" in2="shape" result="effect2_innerShadow_7003_20316"/>
</filter>
<linearGradient id="paint0_linear_7003_20316" x1="44.3324" y1="188.496" x2="52.9239" y2="185.128" gradientUnits="userSpaceOnUse">
<stop stop-color="white" stop-opacity="0.16"/>
<stop offset="1" stop-color="white" stop-opacity="0.64"/>
</linearGradient>
<linearGradient id="paint1_linear_7003_20316" x1="59.9857" y1="149.001" x2="141.273" y2="210.972" gradientUnits="userSpaceOnUse">
<stop stop-color="white" stop-opacity="0.16"/>
<stop offset="1" stop-color="white" stop-opacity="0.64"/>
</linearGradient>
</defs>
</svg>
