<svg width="18" height="23" viewBox="0 0 18 23" fill="none" xmlns="http://www.w3.org/2000/svg">
<path d="M9.23007 0.904902L9.74007 1.4149C10.5051 2.1799 10.9251 3.1949 10.9251 4.2699C10.9251 5.3449 10.5101 6.3549 9.75507 7.1149L5.88007 10.9899C5.68007 11.1899 5.57007 11.4549 5.57007 11.7399C5.57007 12.0249 5.68007 12.2949 5.88007 12.4949L10.9501 17.5649C11.8851 18.4599 13.3651 18.4449 14.2801 17.5299L11.5801 20.2299L9.22507 22.5799L2.50507 15.8599C1.31007 14.6649 0.710069 13.0749 0.810069 11.3799C0.895069 9.9599 1.53007 8.5999 2.59007 7.5349L9.22507 0.899902L9.23007 0.904902Z" fill="#52575E"/>
<path d="M13.08 4.75988L15.95 7.62988C17.05 8.72988 17.655 10.1899 17.655 11.7499C17.655 13.3049 17.05 14.7649 15.95 15.8649L14.28 17.5349C13.365 18.4499 11.88 18.4649 10.95 17.5699L9.22998 15.8499L12.585 12.4949C12.785 12.2949 12.895 12.0249 12.895 11.7449C12.895 11.4599 12.785 11.1899 12.585 10.9899C11.81 10.2149 11.39 9.19988 11.39 8.11988C11.39 7.03988 11.81 6.02488 12.575 5.26488L13.085 4.75488L13.08 4.75988Z" fill="#667085"/>
<path d="M9.23389 9.35156L11.2032 11.3209C11.4365 11.5542 11.4365 11.936 11.2032 12.1694L9.23389 14.1387L7.26459 12.1694C7.03125 11.936 7.03125 11.5542 7.2646 11.3209L9.23389 9.35156Z" fill="#52575E"/>
</svg>
