<svg width="16" height="16" viewBox="0 0 16 16" fill="none" xmlns="http://www.w3.org/2000/svg">
<path d="M12.6875 4.25V4.3125H12.75H13.4169C14.3958 4.3125 15.1875 5.07222 15.1875 6V11C15.1875 11.1823 15.1151 11.3572 14.9861 11.4861C14.8572 11.6151 14.6823 11.6875 14.5 11.6875H12.75H12.6875V11.75V13.5C12.6875 13.6823 12.6151 13.8572 12.4861 13.9861C12.3572 14.1151 12.1823 14.1875 12 14.1875H4C3.81766 14.1875 3.6428 14.1151 3.51386 13.9861C3.38493 13.8572 3.3125 13.6823 3.3125 13.5V11.75V11.6875H3.25H1.5C1.31766 11.6875 1.1428 11.6151 1.01386 11.4861C0.884933 11.3572 0.8125 11.1823 0.8125 11V6C0.8125 5.07222 1.60425 4.3125 2.58313 4.3125H3.25H3.3125V4.25V2.5C3.3125 2.31766 3.38493 2.1428 3.51386 2.01386C3.6428 1.88493 3.81766 1.8125 4 1.8125H12C12.1823 1.8125 12.3572 1.88493 12.4861 2.01386C12.6151 2.1428 12.6875 2.31766 12.6875 2.5V4.25ZM4.75 3.1875H4.6875V3.25V4.25V4.3125H4.75H11.25H11.3125V4.25V3.25V3.1875H11.25H4.75ZM11.25 12.8125H11.3125V12.75V10.75V10.6875H11.25H4.75H4.6875V10.75V12.75V12.8125H4.75H11.25ZM13.75 10.3125H13.8125V10.25V6C13.8125 5.90744 13.7605 5.82807 13.6887 5.77415C13.6165 5.72002 13.5199 5.6875 13.4169 5.6875H2.58313C2.48009 5.6875 2.38346 5.72002 2.31132 5.77415C2.23945 5.82807 2.1875 5.90744 2.1875 6V10.25V10.3125H2.25H3.25H3.3125V10.25V10C3.3125 9.81766 3.38493 9.6428 3.51386 9.51386C3.6428 9.38493 3.81766 9.3125 4 9.3125H12C12.1823 9.3125 12.3572 9.38493 12.4861 9.51386C12.6151 9.6428 12.6875 9.81766 12.6875 10V10.25V10.3125H12.75H13.75ZM12.6875 7.5C12.6875 7.68542 12.6325 7.86668 12.5295 8.02085C12.4265 8.17502 12.2801 8.29518 12.1088 8.36614C11.9375 8.43709 11.749 8.45566 11.5671 8.41949C11.3852 8.38331 11.2182 8.29402 11.0871 8.16291C10.956 8.0318 10.8667 7.86475 10.8305 7.6829C10.7943 7.50104 10.8129 7.31254 10.8839 7.14123C10.9548 6.96993 11.075 6.82351 11.2292 6.7205C11.3833 6.61748 11.5646 6.5625 11.75 6.5625C11.9986 6.5625 12.2371 6.66127 12.4129 6.83709C12.5887 7.0129 12.6875 7.25136 12.6875 7.5Z" fill="#11315B" stroke="#11315B" stroke-width="0.125"/>
</svg>
