<svg width="180" height="180" viewBox="0 0 180 180" fill="none" xmlns="http://www.w3.org/2000/svg">
<ellipse opacity="0.1" cx="90" cy="174.6" rx="90" ry="5.4" fill="#9295A4"/>
<path fill-rule="evenodd" clip-rule="evenodd" d="M82.3482 38.8899C82.3482 35.3058 85.2537 32.4004 88.8377 32.4004C92.4218 32.4004 95.3272 35.3058 95.3272 38.8899C95.3272 40.7188 94.5706 42.371 93.3533 43.5506C111.468 45.2458 124.582 57.1965 126.188 75.2637C129.852 73.1864 134.088 72.0004 138.6 72.0004C152.518 72.0004 163.8 83.2828 163.8 97.2004C163.8 109.68 154.728 120.041 142.82 122.049C143.566 123.183 144 124.541 144 126C144 129.977 140.776 133.2 136.8 133.2H106.134C105.393 141.46 98.4523 147.933 90 147.933C81.5477 147.933 74.6073 141.46 73.8656 133.2H43.2C39.2236 133.2 36 129.977 36 126C36 122.024 39.2236 118.8 43.2 118.8H49.5229V82.6586C49.5229 62.4569 64.7593 45.8138 84.3675 43.5942C83.1237 42.4119 82.3482 40.7414 82.3482 38.8899ZM122.714 77.2587C122.72 77.3752 122.735 77.4892 122.76 77.5996C117.051 82.2195 113.4 89.2836 113.4 97.2004C113.4 106.367 118.295 114.391 125.613 118.8H53.1229V82.6586C53.1229 62.9333 69.1134 46.9428 88.8386 46.9428C107.957 46.9428 121.876 58.5825 122.714 77.2587ZM77.5276 133.533C78.401 139.639 83.6524 144.333 90 144.333C96.3477 144.333 101.599 139.639 102.472 133.533H77.5276ZM138.6 75.6004C126.671 75.6004 117 85.271 117 97.2004C117 109.13 126.671 118.8 138.6 118.8C150.529 118.8 160.2 109.13 160.2 97.2004C160.2 85.271 150.529 75.6004 138.6 75.6004Z" fill="#9295A4"/>
<path fill-rule="evenodd" clip-rule="evenodd" d="M39.6 41.1943C39.6 40.3138 40.3138 39.6 41.1943 39.6C42.0748 39.6 42.7886 40.3138 42.7886 41.1943C42.7886 42.0748 42.0748 42.7886 41.1943 42.7886C40.3138 42.7886 39.6 42.0748 39.6 41.1943ZM41.1943 36C38.3256 36 36 38.3256 36 41.1943C36 44.063 38.3256 46.3886 41.1943 46.3886C44.063 46.3886 46.3886 44.063 46.3886 41.1943C46.3886 38.3256 44.063 36 41.1943 36ZM61.0644 42.3312C61.4459 42.1551 61.8974 42.3287 62.0628 42.715L62.1187 42.8455C62.3042 43.2791 62.1099 43.796 61.669 43.9995C54.6903 47.2203 50.584 52.1492 48.2195 56.2594C47.0356 58.3175 46.2875 60.1724 45.8367 61.5066C45.6114 62.1734 45.4608 62.7091 45.3672 63.0738C45.3205 63.2561 45.288 63.3955 45.2677 63.4871C45.2576 63.5329 45.2505 63.5667 45.2461 63.5878L45.2445 63.5956L45.2426 63.605L45.3109 63.3007L45.2391 63.6229L45.2307 63.6669C45.1467 64.1081 44.7179 64.3952 44.278 64.3048C43.8469 64.2163 43.5668 63.7979 43.6492 63.3656L43.6736 63.2374L43.6741 63.235L43.6749 63.2306L43.6764 63.223L43.6842 63.1844L43.6848 63.1816C43.6911 63.1509 43.7002 63.1081 43.7122 63.054C43.737 62.9422 43.7744 62.7818 43.8267 62.5778C43.9313 62.1698 44.0957 61.587 44.3378 60.8703C44.8219 59.4375 45.6185 57.4655 46.8734 55.2839C49.3869 50.9145 53.7354 45.7136 61.0644 42.3312ZM40.1382 62.5693L40.1128 62.692C39.6621 65.0576 41.1947 67.3467 43.5537 67.8312C45.961 68.3256 48.3073 66.7547 48.7671 64.3405L48.7729 64.3102L48.7823 64.2667C48.7945 64.2119 48.8178 64.1107 48.8544 63.9681C48.9276 63.6825 49.0532 63.2334 49.2473 62.6589C49.6367 61.5064 50.2937 59.8735 51.3401 58.0545C53.4232 54.4333 57.0238 50.1082 63.1775 47.2682C65.3753 46.2539 66.3863 43.6673 65.4283 41.429L65.3724 41.2984C64.4092 39.0481 61.7784 38.0368 59.5559 39.0625C51.4013 42.8259 46.5472 48.6312 43.7529 53.4888C42.3604 55.9094 41.4727 58.1035 40.9272 59.718C40.6539 60.527 40.4645 61.1964 40.3396 61.6835C40.2771 61.9272 40.2305 62.1259 40.1976 62.2743C40.1812 62.3486 40.1681 62.4103 40.1581 62.4588L40.1568 62.465L40.0932 62.8021L40.125 62.6336L40.2098 62.2198L40.1568 62.465L40.1382 62.5693Z" fill="url(#paint0_linear_1418_22440)"/>
<path fill-rule="evenodd" clip-rule="evenodd" d="M134 85.5C134 83.0147 136.015 81 138.5 81C140.985 81 143 83.0147 143 85.5V96.3C143 98.7853 140.985 100.8 138.5 100.8C136.015 100.8 134 98.7853 134 96.3V85.5ZM138.5 84.6C138.003 84.6 137.6 85.0029 137.6 85.5V96.3C137.6 96.7971 138.003 97.2 138.5 97.2C138.997 97.2 139.4 96.7971 139.4 96.3V85.5C139.4 85.0029 138.997 84.6 138.5 84.6ZM138.5 113.4C136.015 113.4 134 111.385 134 108.9C134 106.415 136.015 104.4 138.5 104.4C140.985 104.4 143 106.415 143 108.9C143 111.385 140.985 113.4 138.5 113.4ZM137.6 108.9C137.6 109.397 138.003 109.8 138.5 109.8C138.997 109.8 139.4 109.397 139.4 108.9C139.4 108.403 138.997 108 138.5 108C138.003 108 137.6 108.403 137.6 108.9Z" fill="url(#paint1_linear_1418_22440)"/>
<circle cx="138" cy="97" r="23.5" stroke="url(#paint2_linear_1418_22440)" stroke-width="5"/>
<defs>
<linearGradient id="paint0_linear_1418_22440" x1="50.895" y1="36" x2="50.895" y2="67.9222" gradientUnits="userSpaceOnUse">
<stop stop-color="#9DFFB3"/>
<stop offset="1" stop-color="#1AA37A"/>
</linearGradient>
<linearGradient id="paint1_linear_1418_22440" x1="134.059" y1="99.9346" x2="140.384" y2="100.462" gradientUnits="userSpaceOnUse">
<stop stop-color="#0375F3"/>
<stop offset="0.111111" stop-color="#036EEA"/>
<stop offset="0.222222" stop-color="#0267E1"/>
<stop offset="0.333333" stop-color="#0261D7"/>
<stop offset="0.444444" stop-color="#025ACE"/>
<stop offset="0.555556" stop-color="#0254C5"/>
<stop offset="0.666667" stop-color="#024EBC"/>
<stop offset="0.777778" stop-color="#0148B3"/>
<stop offset="0.888889" stop-color="#0142A9"/>
<stop offset="1" stop-color="#013DA0"/>
</linearGradient>
<linearGradient id="paint2_linear_1418_22440" x1="112.342" y1="101.389" x2="146.098" y2="111.523" gradientUnits="userSpaceOnUse">
<stop stop-color="#0375F3"/>
<stop offset="0.111111" stop-color="#036EEA"/>
<stop offset="0.222222" stop-color="#0267E1"/>
<stop offset="0.333333" stop-color="#0261D7"/>
<stop offset="0.444444" stop-color="#025ACE"/>
<stop offset="0.555556" stop-color="#0254C5"/>
<stop offset="0.666667" stop-color="#024EBC"/>
<stop offset="0.777778" stop-color="#0148B3"/>
<stop offset="0.888889" stop-color="#0142A9"/>
<stop offset="1" stop-color="#013DA0"/>
</linearGradient>
</defs>
</svg>
