<svg width="180" height="180" viewBox="0 0 180 180" fill="none" xmlns="http://www.w3.org/2000/svg">
<ellipse opacity="0.1" cx="90" cy="174.6" rx="90" ry="5.4" fill="#9295A4"/>
<path fill-rule="evenodd" clip-rule="evenodd" d="M69.6727 39.5998C70.8479 35.4445 74.6684 32.3998 79.2 32.3998H115.713C112.669 34.2339 110.044 36.6931 108.017 39.5998H69.6727ZM105.925 43.1998H53.1C47.1353 43.1998 42.3 48.0351 42.3 53.9998V120.6H98.1H99C99.9941 120.6 100.8 121.406 100.8 122.4V131.85C100.8 139.554 107.046 145.8 114.75 145.8C122.454 145.8 128.7 139.554 128.7 131.85V79.1998C114.782 79.1998 103.5 67.9174 103.5 53.9998C103.5 50.1349 104.37 46.4731 105.925 43.1998ZM132.3 78.9446V129.45C137.408 128.594 141.3 124.151 141.3 118.8V75.8285C138.58 77.4017 135.54 78.4812 132.3 78.9446ZM144.9 73.3034V118.8C144.9 126.158 139.381 132.227 132.257 133.094C131.618 142.206 124.024 149.4 114.75 149.4C114.593 149.4 114.436 149.398 114.28 149.394L114.3 149.4H49.5C39.5589 149.4 31.5 141.341 31.5 131.4V127.8C31.5 123.823 34.7235 120.6 38.7 120.6V53.9998C38.7 46.0469 45.1471 39.5998 53.1 39.5998H65.9701C67.2209 33.4378 72.6688 28.7998 79.2 28.7998H126.9V28.8631C127.495 28.8211 128.095 28.7998 128.7 28.7998C142.618 28.7998 153.9 40.0822 153.9 53.9998C153.9 61.7487 150.402 68.6808 144.9 73.3034ZM51.3 90.8998C51.3 88.4145 53.3147 86.3998 55.8 86.3998H82.8C85.2853 86.3998 87.3 88.4145 87.3 90.8998C87.3 93.3851 85.2853 95.3998 82.8 95.3998H55.8C53.3147 95.3998 51.3 93.3851 51.3 90.8998ZM55.8 89.9998C55.3029 89.9998 54.9 90.4027 54.9 90.8998C54.9 91.3969 55.3029 91.7998 55.8 91.7998H82.8C83.2971 91.7998 83.7 91.3969 83.7 90.8998C83.7 90.4027 83.2971 89.9998 82.8 89.9998H55.8ZM66.5174 79.4828C66.6545 79.6199 66.8707 79.6885 67.166 79.6885C67.4191 79.6885 67.6037 79.6199 67.7197 79.4828C67.8463 79.3457 67.9096 79.1295 67.9096 78.8342V77.5527C68.8904 77.4473 69.7816 77.1678 70.5832 76.7143C71.3848 76.2502 72.0281 75.5752 72.5133 74.6893C73.009 73.7928 73.2568 72.6854 73.2568 71.367C73.2568 70.2279 72.9984 69.2893 72.4816 68.551C71.9648 67.8021 71.3637 67.2273 70.6781 66.8266C69.9926 66.4258 69.0697 65.9723 67.9096 65.466V61.1945C68.4369 61.2156 68.8799 61.2736 69.2385 61.3686C69.6076 61.4635 69.982 61.5848 70.3617 61.7324C70.6254 61.8379 70.7994 61.8906 70.8838 61.8906C71.0947 61.8906 71.3162 61.743 71.5482 61.4477C71.7908 61.1523 71.9965 60.8096 72.1652 60.4193C72.334 60.0186 72.4184 59.6916 72.4184 59.4385C72.4184 59.1537 72.2232 58.8689 71.833 58.5842C71.4533 58.2994 70.9154 58.0568 70.2193 57.8564C69.5338 57.6561 68.7639 57.54 67.9096 57.5084V56.6383C67.9096 56.3324 67.8463 56.1162 67.7197 55.9896C67.5932 55.8631 67.3769 55.7998 67.0711 55.7998C66.818 55.7998 66.6281 55.8684 66.5016 56.0055C66.375 56.132 66.3117 56.343 66.3117 56.6383V57.5242C65.2887 57.6402 64.35 57.9197 63.4957 58.3627C62.652 58.8057 61.9717 59.4385 61.4549 60.2611C60.9486 61.0732 60.6955 62.0699 60.6955 63.2512C60.6955 64.4957 60.9645 65.5082 61.5023 66.2887C62.0508 67.0586 62.6889 67.6439 63.4166 68.0447C64.1549 68.435 65.1199 68.8516 66.3117 69.2945V73.9299C65.6578 73.9299 65.0566 73.8402 64.5082 73.6609C63.9703 73.4816 63.4166 73.2496 62.8471 72.9648C62.4463 72.7539 62.1826 72.6484 62.0561 72.6484C61.8662 72.6484 61.6289 72.7961 61.3441 73.0914C61.0594 73.3762 60.8115 73.7189 60.6006 74.1197C60.4002 74.5205 60.3 74.858 60.3 75.1322C60.3 75.4592 60.5373 75.8072 61.0119 76.1764C61.4971 76.5455 62.1932 76.8672 63.1002 77.1414C64.0178 77.4051 65.0883 77.558 66.3117 77.6002V78.8342C66.3117 79.1295 66.3803 79.3457 66.5174 79.4828ZM65.1727 61.9855C65.3836 61.7008 65.7633 61.4898 66.3117 61.3527V64.7383C65.8371 64.4641 65.4732 64.1793 65.2201 63.884C64.9775 63.5887 64.8562 63.2406 64.8562 62.8398C64.8562 62.5445 64.9617 62.2598 65.1727 61.9855ZM68.7955 72.9648C68.574 73.2496 68.2787 73.4658 67.9096 73.6135V70.0539C68.7217 70.518 69.1277 71.1297 69.1277 71.8891C69.1277 72.3215 69.017 72.6801 68.7955 72.9648ZM51.3 105.3C51.3 102.815 53.3147 100.8 55.8 100.8H109.8C112.285 100.8 114.3 102.815 114.3 105.3C114.3 107.785 112.285 109.8 109.8 109.8H55.8C53.3147 109.8 51.3 107.785 51.3 105.3ZM55.8 104.4C55.3029 104.4 54.9 104.803 54.9 105.3C54.9 105.797 55.3029 106.2 55.8 106.2H109.8C110.297 106.2 110.7 105.797 110.7 105.3C110.7 104.803 110.297 104.4 109.8 104.4H55.8ZM107.1 53.9998C107.1 42.0705 116.771 32.3998 128.7 32.3998C140.629 32.3998 150.3 42.0705 150.3 53.9998C150.3 65.9292 140.629 75.5998 128.7 75.5998C116.771 75.5998 107.1 65.9292 107.1 53.9998Z" fill="#9295A4"/>
<path fill-rule="evenodd" clip-rule="evenodd" d="M21.6 138.12C21.6 137.374 22.2044 136.77 22.95 136.77C23.6956 136.77 24.3 137.374 24.3 138.12V138.57C24.3 148.511 32.3589 156.57 42.3 156.57H46.44C47.1359 156.57 47.7 157.134 47.7 157.83C47.7 158.526 47.1359 159.09 46.44 159.09H42.3C30.3514 159.09 21.6 150.48 21.6 138.57V138.12ZM22.95 133.17C20.2162 133.17 18 135.386 18 138.12V138.57C18 152.507 28.4016 162.69 42.3 162.69H46.44C49.1241 162.69 51.3 160.514 51.3 157.83C51.3 155.146 49.1241 152.97 46.44 152.97H42.3C34.3471 152.97 27.9 146.523 27.9 138.57V138.12C27.9 135.386 25.6838 133.17 22.95 133.17Z" fill="#76E6C1"/>
<path fill-rule="evenodd" clip-rule="evenodd" d="M124.199 42.2695C124.199 39.7843 126.214 37.7695 128.699 37.7695C131.184 37.7695 133.199 39.7843 133.199 42.2695V53.0695C133.199 55.5548 131.184 57.5695 128.699 57.5695C126.214 57.5695 124.199 55.5548 124.199 53.0695V42.2695ZM128.699 41.3695C128.202 41.3695 127.799 41.7725 127.799 42.2695V53.0695C127.799 53.5666 128.202 53.9695 128.699 53.9695C129.196 53.9695 129.599 53.5666 129.599 53.0695V42.2695C129.599 41.7725 129.196 41.3695 128.699 41.3695ZM128.699 70.1695C126.214 70.1695 124.199 68.1548 124.199 65.6695C124.199 63.1842 126.214 61.1695 128.699 61.1695C131.184 61.1695 133.199 63.1842 133.199 65.6695C133.199 68.1548 131.184 70.1695 128.699 70.1695ZM127.799 65.6695C127.799 66.1666 128.202 66.5695 128.699 66.5695C129.196 66.5695 129.599 66.1666 129.599 65.6695C129.599 65.1725 129.196 64.7695 128.699 64.7695C128.202 64.7695 127.799 65.1725 127.799 65.6695Z" fill="#1760B9"/>
</svg>
