<svg width="14" height="14" viewBox="0 0 14 14" fill="none" xmlns="http://www.w3.org/2000/svg">
<path d="M13.3844 3.40873L10.5913 0.616227C10.3568 0.381888 10.039 0.250244 9.70751 0.250244C9.37605 0.250244 9.05816 0.381888 8.82375 0.616227L1.11625 8.3231C0.999784 8.43886 0.90744 8.57658 0.844571 8.72828C0.781703 8.87998 0.74956 9.04264 0.750005 9.20685V12C0.750005 12.3315 0.881701 12.6494 1.11612 12.8839C1.35054 13.1183 1.66848 13.25 2 13.25H4.79313C4.95735 13.2505 5.12002 13.2183 5.27173 13.1555C5.42343 13.0926 5.56114 13.0002 5.67688 12.8837L10.6431 7.9181L10.9031 8.78623L8.72001 10.9694C8.57911 11.1102 8.49995 11.3013 8.49995 11.5006C8.49995 11.6999 8.57911 11.891 8.72001 12.0319C8.8609 12.1727 9.052 12.2519 9.25126 12.2519C9.45051 12.2519 9.64161 12.1727 9.78251 12.0319L12.2825 9.53185C12.3782 9.436 12.4462 9.316 12.4792 9.1846C12.5123 9.05321 12.5091 8.91533 12.47 8.7856L11.8488 6.71498L13.3856 5.1781C13.5019 5.06192 13.594 4.92395 13.6569 4.7721C13.7197 4.62025 13.752 4.4575 13.7519 4.29316C13.7518 4.12881 13.7193 3.9661 13.6562 3.81434C13.5932 3.66258 13.5008 3.52475 13.3844 3.40873ZM3.0625 8.49998L7.5 4.06248L9.9375 6.49998L5.5 10.9375L3.0625 8.49998ZM2.25 9.81248L4.1875 11.75H2.25V9.81248ZM11 5.43748L8.5625 2.99998L9.70875 1.85373L12.1463 4.29123L11 5.43748Z" fill="#637381"/>
</svg>
