<svg width="180" height="180" viewBox="0 0 180 180" fill="none" xmlns="http://www.w3.org/2000/svg">
<ellipse opacity="0.1" cx="90" cy="174.6" rx="90" ry="5.4" fill="#9295A4"/>
<path fill-rule="evenodd" clip-rule="evenodd" d="M47.4521 50.2561C41.4875 50.2561 36.6521 55.0914 36.6521 61.0561V136.842C36.6521 142.807 41.4874 147.642 47.4521 147.642H119.452C125.417 147.642 130.252 142.807 130.252 136.842V125.153C122.72 120.796 117.652 112.652 117.652 103.324C117.652 93.9969 122.72 85.8529 130.252 81.4957V61.0561C130.252 55.0914 125.417 50.2561 119.452 50.2561H112.066V52.9865C112.066 57.957 108.037 61.9865 103.066 61.9865H67.4385C62.4679 61.9865 58.4385 57.957 58.4385 52.9865V50.2561H47.4521ZM133.852 79.7791V61.0561C133.852 53.1032 127.405 46.6561 119.452 46.6561H95.7923C94.5698 41.9772 90.3142 38.5244 85.2522 38.5244C80.1903 38.5244 75.9347 41.9772 74.7122 46.6561H47.4521C39.4992 46.6561 33.0521 53.1032 33.0521 61.0561V136.842C33.0521 144.795 39.4992 151.242 47.4521 151.242H119.452C127.405 151.242 133.852 144.795 133.852 136.842V126.87C136.647 127.939 139.681 128.524 142.852 128.524C156.77 128.524 168.052 117.242 168.052 103.324C168.052 89.4068 156.77 78.1244 142.852 78.1244C139.681 78.1244 136.647 78.7101 133.852 79.7791ZM75.0726 86.4723C75.0726 83.987 77.0873 81.9723 79.5726 81.9723H110.173C112.658 81.9723 114.673 83.987 114.673 86.4723C114.673 88.9575 112.658 90.9723 110.173 90.9723H79.5726C77.0873 90.9723 75.0726 88.9575 75.0726 86.4723ZM79.5726 103.045C77.0873 103.045 75.0726 105.06 75.0726 107.545C75.0726 110.03 77.0873 112.045 79.5726 112.045H110.173C112.658 112.045 114.673 110.03 114.673 107.545C114.673 105.06 112.658 103.045 110.173 103.045H79.5726ZM78.6726 107.545C78.6726 107.048 79.0756 106.645 79.5726 106.645H110.173C110.67 106.645 111.073 107.048 111.073 107.545C111.073 108.042 110.67 108.445 110.173 108.445H79.5726C79.0756 108.445 78.6726 108.042 78.6726 107.545ZM75.0726 129.579C75.0726 127.094 77.0873 125.079 79.5726 125.079H110.173C112.658 125.079 114.673 127.094 114.673 129.579C114.673 132.064 112.658 134.079 110.173 134.079H79.5726C77.0873 134.079 75.0726 132.064 75.0726 129.579ZM79.5726 128.679C79.0756 128.679 78.6726 129.082 78.6726 129.579C78.6726 130.076 79.0756 130.479 79.5726 130.479H110.173C110.67 130.479 111.073 130.076 111.073 129.579C111.073 129.082 110.67 128.679 110.173 128.679H79.5726ZM54.9615 84.8586C54.9615 81.8763 57.3792 79.4586 60.3615 79.4586H63.2167C66.199 79.4586 68.6167 81.8763 68.6167 84.8586V87.7138C68.6167 90.6961 66.199 93.1138 63.2167 93.1138H60.3615C57.3792 93.1138 54.9615 90.6961 54.9615 87.7138V84.8586ZM60.3615 100.531C57.3792 100.531 54.9615 102.949 54.9615 105.931V108.786C54.9615 111.769 57.3792 114.186 60.3615 114.186H63.2167C66.199 114.186 68.6167 111.769 68.6167 108.786V105.931C68.6167 102.949 66.199 100.531 63.2167 100.531H60.3615ZM58.5615 105.931C58.5615 104.937 59.3674 104.131 60.3615 104.131H63.2167C64.2108 104.131 65.0167 104.937 65.0167 105.931V108.786C65.0167 109.781 64.2108 110.586 63.2167 110.586H60.3615C59.3674 110.586 58.5615 109.781 58.5615 108.786V105.931ZM54.9615 127.965C54.9615 124.983 57.3792 122.565 60.3615 122.565H63.2167C66.199 122.565 68.6167 124.983 68.6167 127.965V130.821C68.6167 133.803 66.199 136.221 63.2167 136.221H60.3615C57.3792 136.221 54.9615 133.803 54.9615 130.821V127.965ZM60.3615 126.165C59.3674 126.165 58.5615 126.971 58.5615 127.965V130.821C58.5615 131.815 59.3674 132.621 60.3615 132.621H63.2167C64.2108 132.621 65.0167 131.815 65.0167 130.821V127.965C65.0167 126.971 64.2108 126.165 63.2167 126.165H60.3615ZM121.252 103.324C121.252 91.3951 130.923 81.7244 142.852 81.7244C154.781 81.7244 164.452 91.3951 164.452 103.324C164.452 115.254 154.781 124.924 142.852 124.924C130.923 124.924 121.252 115.254 121.252 103.324Z" fill="#9295A4"/>
<path fill-rule="evenodd" clip-rule="evenodd" d="M34.9429 30.5585C33.7363 28.2339 30.8737 27.3276 28.5491 28.5342C26.2246 29.7408 25.3183 32.6034 26.5248 34.928L31.0192 43.5867C32.2258 45.9113 35.0884 46.8176 37.413 45.611C39.7376 44.4044 40.6439 41.5418 39.4373 39.2172L34.9429 30.5585ZM30.2076 31.7294C30.7676 31.4388 31.4571 31.6571 31.7477 32.217L36.2421 40.8757C36.5327 41.4357 36.3144 42.1252 35.7545 42.4158C35.1946 42.7064 34.5051 42.4881 34.2145 41.9282L29.7201 33.2695C29.4294 32.7096 29.6477 32.02 30.2076 31.7294ZM12.5018 44.7044C13.6732 42.3619 16.5218 41.4126 18.8643 42.584L27.5898 46.9473C29.9323 48.1187 30.8817 50.9673 29.7103 53.3098C28.5389 55.6523 25.6903 56.6017 23.3478 55.4303L14.6223 51.067C12.2798 49.8956 11.3304 47.047 12.5018 44.7044ZM17.2542 45.8038C16.6899 45.5217 16.0038 45.7503 15.7217 46.3146C15.4395 46.8788 15.6682 47.565 16.2324 47.8471L24.9579 52.2104C25.5222 52.4926 26.2083 52.2639 26.4905 51.6997C26.7726 51.1354 26.5439 50.4493 25.9797 50.1671L17.2542 45.8038Z" fill="#A3EED6"/>
<path fill-rule="evenodd" clip-rule="evenodd" d="M139 91.5C139 89.0147 141.015 87 143.5 87C145.985 87 148 89.0147 148 91.5V102.3C148 104.785 145.985 106.8 143.5 106.8C141.015 106.8 139 104.785 139 102.3V91.5ZM143.5 90.6C143.003 90.6 142.6 91.0029 142.6 91.5V102.3C142.6 102.797 143.003 103.2 143.5 103.2C143.997 103.2 144.4 102.797 144.4 102.3V91.5C144.4 91.0029 143.997 90.6 143.5 90.6ZM143.5 119.4C141.015 119.4 139 117.385 139 114.9C139 112.415 141.015 110.4 143.5 110.4C145.985 110.4 148 112.415 148 114.9C148 117.385 145.985 119.4 143.5 119.4ZM142.6 114.9C142.6 115.397 143.003 115.8 143.5 115.8C143.997 115.8 144.4 115.397 144.4 114.9C144.4 114.403 143.997 114 143.5 114C143.003 114 142.6 114.403 142.6 114.9Z" fill="#1760B9"/>
<circle cx="143" cy="103" r="23.5" stroke="#1760B9" stroke-width="5"/>
</svg>
