<svg width="25" height="24" viewBox="0 0 25 24" fill="none" xmlns="http://www.w3.org/2000/svg">
<path opacity="0.5" d="M5.59992 17.75C5.44656 17.7501 5.29685 17.7032 5.17096 17.6156C5.04508 17.528 4.94908 17.4039 4.8959 17.2601C4.84272 17.1162 4.83492 16.9595 4.87354 16.8111C4.91217 16.6627 4.99537 16.5297 5.11192 16.43L12.1119 10.43C12.2478 10.3135 12.4209 10.2495 12.5999 10.2495C12.7789 10.2495 12.952 10.3135 13.0879 10.43L20.0879 16.43C20.2045 16.5297 20.2877 16.6627 20.3263 16.8111C20.3649 16.9595 20.3571 17.1162 20.3039 17.2601C20.2508 17.4039 20.1548 17.528 20.0289 17.6156C19.903 17.7032 19.7533 17.7501 19.5999 17.75H5.59992Z" fill="url(#paint0_linear_7_29)"/>
<path fill-rule="evenodd" clip-rule="evenodd" d="M5.03003 13.488C5.09416 13.5628 5.1724 13.6243 5.26029 13.6689C5.34818 13.7134 5.44399 13.7403 5.54224 13.7478C5.6405 13.7553 5.73927 13.7434 5.83292 13.7127C5.92657 13.682 6.01326 13.6332 6.08803 13.569L12.6 7.98803L19.112 13.569C19.1862 13.6369 19.2732 13.6892 19.368 13.7228C19.4628 13.7564 19.5633 13.7706 19.6637 13.7645C19.764 13.7585 19.8622 13.7323 19.9522 13.6876C20.0423 13.6429 20.1224 13.5805 20.1878 13.5042C20.2533 13.4278 20.3027 13.3391 20.3332 13.2433C20.3637 13.1475 20.3746 13.0466 20.3653 12.9464C20.356 12.8463 20.3267 12.7491 20.279 12.6606C20.2314 12.572 20.1664 12.494 20.088 12.431L13.088 6.43103C12.9521 6.31456 12.779 6.25055 12.6 6.25055C12.421 6.25055 12.2479 6.31456 12.112 6.43103L5.11203 12.431C4.96121 12.5605 4.86797 12.7446 4.85278 12.9428C4.83759 13.141 4.9017 13.3371 5.03103 13.488H5.03003Z" fill="url(#paint1_linear_7_29)"/>
<defs>
<linearGradient id="paint0_linear_7_29" x1="7.3151" y1="6.92608" x2="10.5186" y2="25.2371" gradientUnits="userSpaceOnUse">
<stop stop-color="#1FC583"/>
<stop offset="1" stop-color="#1F9285"/>
</linearGradient>
<linearGradient id="paint1_linear_7_29" x1="7.319" y1="2.92052" x2="10.5315" y2="21.2669" gradientUnits="userSpaceOnUse">
<stop stop-color="#1FC583"/>
<stop offset="1" stop-color="#1F9285"/>
</linearGradient>
</defs>
</svg>
