<svg width="15" height="44" fill="none" xmlns="http://www.w3.org/2000/svg"><path d="M11.054 31.028v-2.644a.712.712 0 1 0-1.424 0v1.988l-.12-.037a7.134 7.134 0 0 0-1.07-.249l-.006-.001a7.147 7.147 0 0 0-.325-.042l-.072-.007h-.01v-4.3c.601-.265 1.022-.866 1.022-1.563v-4.156c0-.697-.421-1.298-1.021-1.563v-4.49h.009l.072-.008c.109-.011.217-.025.325-.04l.008-.002a7.136 7.136 0 0 0 1.036-.239l.033-.01.119-.037v12.3a.712.712 0 1 0 1.424 0V12.971a7.277 7.277 0 0 0 3.378-7.845.712.712 0 0 0-1.39.311 5.856 5.856 0 0 1-3.568 6.728l-.124.05a5.993 5.993 0 0 1-.46.147l-.117.031a5.763 5.763 0 0 1-.634.123 5.248 5.248 0 0 1-.349.037c-.044.004-.088.008-.132.01a6.144 6.144 0 0 1-.65 0c-.044-.002-.087-.006-.131-.01a5.903 5.903 0 0 1-.494-.058c-.06-.01-.12-.02-.179-.032l-.125-.027c-.062-.013-.124-.027-.185-.043l-.117-.032a5.907 5.907 0 0 1-.274-.083c-.062-.02-.124-.04-.186-.063l-.124-.05a5.502 5.502 0 0 1-.18-.073l-.116-.052a5.856 5.856 0 0 1-3.414-5.317c0-1.935.955-3.719 2.505-4.8v5.738c0 .255.136.49.356.617l2.633 1.52c.22.128.492.128.712 0l2.634-1.52a.712.712 0 0 0 .356-.617V1.924a5.868 5.868 0 0 1 1.527 1.561.712.712 0 1 0 1.185-.79A7.282 7.282 0 0 0 10.253.06a.712.712 0 0 0-.999.652v6.539l-1.92 1.11-1.922-1.11V.712A.712.712 0 0 0 4.414.06 7.279 7.279 0 0 0 .058 6.724a7.277 7.277 0 0 0 3.555 6.248v18.056a7.277 7.277 0 0 0-3.555 6.248 7.279 7.279 0 0 0 4.356 6.664.712.712 0 0 0 .998-.652v-6.539l1.921-1.11 1.921 1.11v6.539a.712.712 0 0 0 .999.652 7.279 7.279 0 0 0 4.355-6.663 7.277 7.277 0 0 0-3.554-6.249Zm-4.012-11.01c0-.158.128-.286.285-.286h.012c.157 0 .285.128.285.285v4.156a.286.286 0 0 1-.285.285h-.012a.286.286 0 0 1-.285-.285v-4.156Zm-2.005-6.39.119.037.033.01c.339.105.684.185 1.036.24h.008c.107.017.216.03.324.042l.046.005v4.51a1.71 1.71 0 0 0-.985 1.545v4.156c0 .683.404 1.273.985 1.546v4.32c-.015 0-.03.003-.046.005a7.288 7.288 0 0 0-.324.041l-.008.001a7.122 7.122 0 0 0-1.036.239l-.033.01-.12.037V13.628Zm5.642 28.448v-5.738a.712.712 0 0 0-.356-.617l-2.634-1.52a.712.712 0 0 0-.712 0l-2.633 1.52a.712.712 0 0 0-.356.617v5.738a5.854 5.854 0 0 1-2.505-4.8 5.856 5.856 0 0 1 3.414-5.317l.117-.052c.059-.026.119-.05.18-.074l.123-.049c.063-.023.126-.043.189-.064.09-.03.18-.057.271-.082l.117-.033c.061-.015.123-.029.185-.042a5.269 5.269 0 0 1 .614-.1c.06-.008.122-.013.184-.018l.132-.01a6.039 6.039 0 0 1 .65 0l.131.01a5.963 5.963 0 0 1 .494.06l.179.031.125.027c.062.013.124.027.185.042l.117.032c.091.026.181.053.27.083.064.02.127.041.19.064.041.015.082.033.124.049.06.024.12.048.18.074a6.028 6.028 0 0 1 .298.14 5.856 5.856 0 0 1 3.232 5.23 5.854 5.854 0 0 1-2.505 4.799Z" fill="#1760B9"/></svg>