<svg width="21" height="44" fill="none" xmlns="http://www.w3.org/2000/svg"><path d="M20.12 13.009a.645.645 0 0 0 .644-.645v-1.02c0-.735-.597-1.332-1.332-1.332h-1.504V1.934A1.936 1.936 0 0 0 15.995 0a1.936 1.936 0 0 0-1.934 1.934v8.078H7.272V1.934A1.936 1.936 0 0 0 5.338 0a1.936 1.936 0 0 0-1.933 1.934v8.078H1.9c-.735 0-1.332.597-1.332 1.332v7.906c0 .735.597 1.332 1.332 1.332h.3v.047c0 .53.135 1.056.389 1.522a.644.644 0 1 0 1.131-.618c-.15-.276-.23-.589-.23-.904v-.047h14.351v.047c0 .416-.14.825-.393 1.154l-.453.586a4.204 4.204 0 0 0-.872 2.557v1.93H5.21v-1.93c0-.28-.029-.56-.084-.834a.644.644 0 1 0-1.264.257 2.9 2.9 0 0 1 .058.577v2.012c-.794.24-1.375.979-1.375 1.851 0 1.066.868 1.934 1.934 1.934h2.965v12.633c0 .355.288.644.644.644h5.157a.645.645 0 0 0 .644-.645v-2.148a.645.645 0 0 0-1.289 0v1.504H8.733V30.723H12.6v7.75a.645.645 0 0 0 1.29 0v-7.75h2.964a1.936 1.936 0 0 0 1.934-1.934c0-.872-.58-1.611-1.375-1.851v-2.012c0-.637.214-1.265.603-1.769l.453-.586a3.193 3.193 0 0 0 .662-1.942v-.047h.301c.735 0 1.332-.598 1.332-1.332v-4.136a.644.644 0 1 0-1.289 0v4.136c0 .024-.02.043-.043.043H1.901a.043.043 0 0 1-.043-.043v-7.906c0-.024.02-.043.043-.043h6.832v4.168c0 .356.289.644.645.644h2.578a.645.645 0 0 0 .644-.644V11.3h6.832c.024 0 .043.019.043.043v1.02c0 .356.289.645.645.645Zm-3.266 16.425H4.48a.645.645 0 0 1 0-1.29h12.375a.645.645 0 0 1 0 1.29ZM4.694 10.012V1.934a.645.645 0 0 1 1.289 0v8.078H4.694Zm6.617 4.812h-1.289v-3.523h1.29v3.523Zm4.04-4.812V1.934a.645.645 0 0 1 1.288 0v8.078H15.35Z" fill="#1760B9"/></svg>