<svg width="40" height="36" fill="none" xmlns="http://www.w3.org/2000/svg"><path d="M1.686 36h22.67a.748.748 0 0 0 .748-.748v-8.077h9.852a4.282 4.282 0 0 0 4.265-4.277v-2.54a.748.748 0 0 0-1.495 0v2.54a2.785 2.785 0 0 1-2.782 2.782c-1.513 0-2.781-1.268-2.781-2.781V9.503h5.563v4.284a.748.748 0 1 0 1.495 0V8.755a.748.748 0 0 0-.748-.748h-6.31v-3.73A4.281 4.281 0 0 0 27.973 0H5.215A4.282 4.282 0 0 0 .94 4.277v30.975c0 .413.334.748.747.748Zm26.2-34.505a2.785 2.785 0 0 1 2.781 2.782v18.621c0 1.015.367 2.012 1.028 2.782h-6.59V4.277a2.785 2.785 0 0 1 2.78-2.782Zm-22.67 0H24.64a4.296 4.296 0 0 0-1.031 2.782v30.228H2.434V4.277a2.784 2.784 0 0 1 2.781-2.782Z" fill="#1760B9"/><path d="M39.094 16.658a.751.751 0 0 0-.82-.305.755.755 0 0 0-.548.702c-.017.64.761.999 1.24.58a.754.754 0 0 0 .128-.977ZM19.422 28.268a1.226 1.226 0 0 1-1.218 0l-.97-.556a2.73 2.73 0 0 0-2.706 0l-.97.556a1.227 1.227 0 0 1-1.218 0l-.97-.556a2.728 2.728 0 0 0-2.706 0l-.97.556a1.227 1.227 0 0 1-1.218 0 .747.747 0 1 0-.745 1.297 2.718 2.718 0 0 0 2.707 0l.97-.556a1.227 1.227 0 0 1 1.218 0l.97.556c.835.48 1.872.48 2.706 0l.97-.556a1.227 1.227 0 0 1 1.218 0l.97.556c.835.48 1.872.48 2.707 0a.748.748 0 1 0-.745-1.297ZM5.732 22.623a2.718 2.718 0 0 0 2.706 0l.97-.557a1.228 1.228 0 0 1 1.218 0l.97.557a2.73 2.73 0 0 0 2.706 0l.97-.556a1.227 1.227 0 0 1 1.218 0l.97.556a2.728 2.728 0 0 0 2.707 0 .748.748 0 0 0-.745-1.297 1.227 1.227 0 0 1-1.218 0l-.97-.556a2.73 2.73 0 0 0-2.706 0l-.97.556a1.228 1.228 0 0 1-1.218 0l-.97-.556a2.728 2.728 0 0 0-2.706 0l-.97.556a1.227 1.227 0 0 1-1.218 0 .748.748 0 0 0-.744 1.297ZM19.422 14.383a1.226 1.226 0 0 1-1.218 0l-.97-.557a2.73 2.73 0 0 0-2.706 0l-.97.557a1.227 1.227 0 0 1-1.218 0l-.97-.557a2.728 2.728 0 0 0-2.706 0l-.97.557a1.227 1.227 0 0 1-1.218 0 .748.748 0 0 0-.745 1.296 2.718 2.718 0 0 0 2.707 0l.97-.556a1.227 1.227 0 0 1 1.218 0l.97.557c.835.479 1.872.479 2.706 0l.97-.557a1.228 1.228 0 0 1 1.218 0l.97.556c.835.48 1.872.48 2.707 0a.748.748 0 1 0-.745-1.296ZM5.732 8.736a2.719 2.719 0 0 0 2.707 0l.97-.556a1.227 1.227 0 0 1 1.217 0l.97.556a2.729 2.729 0 0 0 2.706 0l.97-.556a1.228 1.228 0 0 1 1.218 0l.97.556c.835.48 1.872.48 2.707 0a.748.748 0 1 0-.745-1.297 1.227 1.227 0 0 1-1.217 0l-.97-.556a2.73 2.73 0 0 0-2.707 0l-.97.556a1.228 1.228 0 0 1-1.218 0l-.97-.556a2.728 2.728 0 0 0-2.706 0l-.97.556a1.227 1.227 0 0 1-1.218 0 .748.748 0 0 0-.744 1.297Z" fill="#1760B9"/></svg>