<svg width="44" height="44" fill="none" xmlns="http://www.w3.org/2000/svg"><path d="m39.483 22.293-.587.249.243.59c.764 1.856-.012 4.056-1.73 4.903l-.366.18.006.408a2.786 2.786 0 0 1-.803 2.011 2.657 2.657 0 0 1-3.395.343l-.386-.261-.369.284a3.995 3.995 0 0 1-2.45.843c-1.226 0-2.39-.572-3.193-1.57l-.421-.523-.506.444A5.358 5.358 0 0 1 22 31.542a5.358 5.358 0 0 1-3.526-1.348l-.506-.444-.421.524c-.804.997-1.967 1.569-3.192 1.569A3.995 3.995 0 0 1 11.904 31l-.37-.284-.385.261a2.657 2.657 0 0 1-3.395-.343 2.786 2.786 0 0 1-.803-2.011l.006-.408-.365-.18a3.546 3.546 0 0 1-1.59-1.583l-1.147.588c.424.828 1.049 1.5 1.82 1.963a4.056 4.056 0 0 0 1.161 2.536 3.937 3.937 0 0 0 2.822 1.187c.64 0 1.262-.154 1.824-.448a5.282 5.282 0 0 0 1.68.717l.213.83c.293 1.135.867 1.478 1.823 1.716l1.005.25c.29.818 1.07 1.177 1.664 1.451l.98.453-.07 3.067c-.024 1.093-.874 1.949-1.933 1.949V44h10.312v-1.29c-1.06 0-1.909-.855-1.933-1.948l-.07-3.067.98-.453c.593-.274 1.373-.634 1.664-1.451l1.005-.25c.956-.238 1.53-.581 1.823-1.715l.214-.831a5.282 5.282 0 0 0 1.68-.717 3.925 3.925 0 0 0 1.823.448 3.936 3.936 0 0 0 2.822-1.187 4.056 4.056 0 0 0 1.16-2.536c.976-.586 1.716-1.506 2.105-2.628a5.278 5.278 0 0 0 .1-3.157c1.487-.808 2.619-2.198 3.149-3.893l-1.23-.385c-.48 1.535-1.56 2.757-2.965 3.353ZM15.509 34.29c-.619-.154-.74-.226-.885-.786l-.097-.376c.45-.015.893-.087 1.32-.214l.157 1.5-.495-.124Zm2.898 1.782c-.724-.334-.987-.517-1.025-.879l-.297-2.826a5.544 5.544 0 0 0 1.035-.807c.273.197.56.373.855.526l-.096 4.204-.472-.218Zm1.007 6.639a3.324 3.324 0 0 0 .652-1.92l.187-8.2a6.505 6.505 0 0 0 3.494 0l.187 8.2c.016.726.256 1.388.652 1.92h-5.172Zm6.179-6.64-.472.219-.096-4.204a6.78 6.78 0 0 0 .855-.526c.316.313.663.583 1.035.807l-.297 2.826c-.037.362-.301.545-1.025.879Zm2.898-1.78-.495.122.157-1.499c.427.127.87.2 1.32.214l-.097.376c-.144.56-.266.632-.885.786ZM43.965 16.492l-1.283.126c.038.386.038.777 0 1.163l1.283.127c.046-.47.046-.947 0-1.416ZM4.861 23.132l.243-.59-.587-.249c-1.96-.832-3.228-2.831-3.228-5.093 0-2.498 1.573-4.678 3.824-5.302l.621-.172-.172-.622c-.323-1.163.076-2.376 1.018-3.091.817-.62 1.828-.675 2.705-.146l.784.473.18-.898c.334-1.66 1.358-3.04 2.812-3.784a4.704 4.704 0 0 1 4.164-.103l.473.215.31-.417C18.984 2.04 20.44 1.289 22 1.289s3.016.752 3.992 2.064l.31.417.473-.215a4.704 4.704 0 0 1 4.164.103c1.453.744 2.478 2.123 2.812 3.784l.18.898.785-.473c.89-.537 1.871-.488 2.691.135.778.59 1.399 1.779 1.031 3.102l-.172.621.62.173c1.679.465 3.01 1.796 3.561 3.56l1.23-.385c-.62-1.982-2.046-3.526-3.876-4.23.18-1.469-.427-2.966-1.614-3.868-1.015-.77-2.232-.965-3.377-.57-.547-1.697-1.714-3.091-3.283-3.895a6.048 6.048 0 0 0-4.816-.319C25.501.793 23.81 0 22 0c-1.81 0-3.501.793-4.711 2.191a6.047 6.047 0 0 0-4.816.32c-1.57.804-2.737 2.2-3.285 3.898-1.142-.385-2.383-.186-3.388.577a4.15 4.15 0 0 0-1.603 3.858C1.698 11.81 0 14.338 0 17.2c0 2.567 1.344 4.867 3.47 6.018a5.27 5.27 0 0 0-.093 2.436l1.265-.247a3.963 3.963 0 0 1 .22-2.275Z" fill="#1760B9"/><path d="M27.8 5.352h1.29V6.64H27.8V5.35ZM30.379 6.64h1.29v1.29h-1.29V6.64Z" fill="#1760B9"/></svg>