<svg width="45" height="44" fill="none" xmlns="http://www.w3.org/2000/svg"><g clip-path="url(#a)" fill="#1760B9"><path d="M8.786 37.902h-.008a.642.642 0 0 0-.641.646.649.649 0 0 0 1.295 0 .646.646 0 0 0-.646-.646ZM16.568 37.902h-.008a.643.643 0 0 0-.641.646.65.65 0 0 0 .65.646.645.645 0 1 0 0-1.292ZM24.347 37.902h-.008a.643.643 0 0 0-.642.646.65.65 0 0 0 .65.646.645.645 0 1 0 0-1.292ZM32.125 37.902h-.008a.642.642 0 0 0-.642.646.649.649 0 0 0 1.296 0 .646.646 0 0 0-.646-.646ZM39.87 39.194a.645.645 0 1 0 0-1.292h-.009a.643.643 0 0 0-.642.646.65.65 0 0 0 .65.646ZM43.73 42.209H15.184a.646.646 0 0 0 0 1.292H43.73a.646.646 0 1 0 0-1.292Z"/><path d="M12 42.209H5.307a3.665 3.665 0 0 1-3.661-3.661 3.665 3.665 0 0 1 3.661-3.662h38.425a.646.646 0 1 0 0-1.292h-1.538c.166-.322.26-.687.26-1.073V20.132c0-.83-.676-1.505-1.506-1.505h-7.24a.645.645 0 1 0 0 1.292h7.24c.118 0 .214.095.214.213v.986a1.499 1.499 0 0 0-.214-.017H39.41c-.465 0-.897.21-1.184.576l-1.056 1.345a.214.214 0 0 1-.168.082h-5.368a.213.213 0 0 1-.168-.082l-1.056-1.345a1.497 1.497 0 0 0-1.184-.576h-1.537c-.073 0-.144.007-.214.017v-.985c0-.119.096-.214.214-.214h3.075a.646.646 0 1 0 0-1.292h-3.075c-.83 0-1.505.675-1.505 1.506V32.52c0 .386.093.751.258 1.073h-3.447a2.35 2.35 0 0 0 .259-1.073v-9.914c0-.83-.676-1.505-1.506-1.505h-1.536c-.466 0-.897.21-1.185.576l-1.055 1.344a.212.212 0 0 1-.168.082h-5.368a.212.212 0 0 1-.169-.082l-1.055-1.344a1.496 1.496 0 0 0-1.185-.576H8.491c-.83 0-1.506.675-1.506 1.505v9.914c0 .386.094.751.259 1.073H5.306a4.959 4.959 0 0 0-4.953 4.954A4.958 4.958 0 0 0 5.306 43.5h6.695a.645.645 0 1 0 0-1.291Zm15.475-14.823h13.686v3.16H27.475v-3.16Zm.214-4.993h1.537c.066 0 .128.03.168.082l1.056 1.345c.287.366.719.576 1.184.576h5.368c.466 0 .897-.21 1.185-.576l1.055-1.345a.212.212 0 0 1 .168-.082h1.537c.118 0 .214.096.214.214v3.487H27.475v-3.487c0-.118.096-.214.214-.214Zm-.214 10.128v-.683h13.686v.683c0 .592-.482 1.073-1.074 1.073H28.55a1.075 1.075 0 0 1-1.074-1.073ZM8.277 27.386h13.685v3.16H8.277v-3.16Zm.214-4.993h1.537c.066 0 .127.03.168.082l1.055 1.345c.288.366.72.576 1.184.576h5.369c.465 0 .897-.21 1.184-.576l1.055-1.345a.212.212 0 0 1 .169-.082h1.536c.118 0 .214.096.214.214v3.487H8.277v-3.487c0-.118.096-.214.214-.214ZM8.277 32.52v-.683h13.685v.683c0 .592-.482 1.073-1.074 1.073H9.351a1.075 1.075 0 0 1-1.074-1.073Z"/><path d="M44.376 36.06a.646.646 0 0 0-.645-.645H5.306a3.136 3.136 0 0 0-3.133 3.133 3.136 3.136 0 0 0 3.133 3.132h38.425a.646.646 0 1 0 0-1.291h-1.333c.377-.517.6-1.154.6-1.841 0-.688-.223-1.324-.6-1.841h1.332c.357 0 .646-.29.646-.646Zm-37.43 2.487c0-1.015.825-1.84 1.84-1.84 1.016 0 1.841.825 1.841 1.84a1.843 1.843 0 0 1-1.84 1.842 1.843 1.843 0 0 1-1.842-1.842Zm4.373-1.84h2.713a3.115 3.115 0 0 0-.6 1.84c0 .688.223 1.325.6 1.842H11.32c.376-.517.6-1.154.6-1.841 0-.688-.224-1.324-.6-1.841Zm3.404 1.84c0-1.015.826-1.84 1.841-1.84 1.016 0 1.841.825 1.841 1.84a1.843 1.843 0 0 1-1.84 1.842 1.843 1.843 0 0 1-1.842-1.842Zm4.374-1.84h2.713a3.115 3.115 0 0 0-.6 1.84c0 .688.223 1.325.6 1.842h-2.713c.377-.517.6-1.154.6-1.841 0-.688-.223-1.324-.6-1.841Zm3.405 1.84c0-1.015.826-1.84 1.84-1.84 1.016 0 1.842.825 1.842 1.84a1.843 1.843 0 0 1-1.841 1.842 1.843 1.843 0 0 1-1.841-1.842Zm4.373-1.84h2.714a3.116 3.116 0 0 0-.6 1.84c0 .688.223 1.325.6 1.842h-2.714c.377-.517.6-1.154.6-1.841 0-.688-.223-1.324-.6-1.841Zm3.405 1.84c0-1.015.826-1.84 1.841-1.84 1.015 0 1.841.825 1.841 1.84a1.843 1.843 0 0 1-1.84 1.842 1.843 1.843 0 0 1-1.842-1.842Zm4.373-1.84h2.68a3.116 3.116 0 0 0-.6 1.84c0 .688.223 1.325.6 1.842h-2.68a3.118 3.118 0 0 0 0-3.682Zm-31.188 1.84c0-1.015.826-1.84 1.841-1.84h.948a3.115 3.115 0 0 0-.6 1.84c0 .688.223 1.324.6 1.842h-.948a1.843 1.843 0 0 1-1.84-1.842Zm38.241 0a1.843 1.843 0 0 1-1.84 1.842 1.843 1.843 0 0 1-1.842-1.842c0-1.015.826-1.84 1.841-1.84 1.015 0 1.841.825 1.841 1.84ZM37.55 3.867h6.138a.646.646 0 0 0 0-1.292H37.55a.646.646 0 1 0 0 1.292Z"/><path d="M18.134 13.485c.361.249.76.423 1.174.519v.414a2.258 2.258 0 0 0-1.608 2.16v2.53c0 .172.068.336.19.457l.771.772a.646.646 0 0 0 .914-.914l-.583-.582v-2.264c0-.282.122-.535.316-.71v.538a.646.646 0 1 0 1.292 0v-.539c.194.176.317.43.317.711v2.264l-.615.615a.646.646 0 1 0 .913.913l.804-.804a.646.646 0 0 0 .19-.456v-2.532c0-1.018-.68-1.88-1.609-2.159v-.37l.102-.016a3.407 3.407 0 0 0 2.203-1.428c.36-.522.563-1.12.6-1.737l2.713-2.165c.53.245 1.11.38 1.712.389h.064a4.231 4.231 0 0 0 3.65-2.102h12.043a.646.646 0 1 0 0-1.291H32.135a4.247 4.247 0 0 0-.037-1.831h2.51a.646.646 0 1 0 0-1.292H31.54a4.26 4.26 0 0 0-.517-.648A4.195 4.195 0 0 0 28.056.646a4.222 4.222 0 0 0-4.195 5.082l-2.304 1.837a3.413 3.413 0 0 0-2.1-.28 3.434 3.434 0 0 0-2.752 3.996 3.408 3.408 0 0 0 1.429 2.204Zm11.459-6.16L28.16 5.895a.601.601 0 0 1-.177-.43.606.606 0 0 1 1.035-.428l1.431 1.432a2.95 2.95 0 0 1-.856.858Zm-3.642-4.56a2.911 2.911 0 0 1 2.085-.827 2.913 2.913 0 0 1 2.06.889 2.911 2.911 0 0 1 .818 2.279l-.983-.983a1.886 1.886 0 0 0-1.342-.556c-.507 0-.984.198-1.342.556a1.882 1.882 0 0 0-.556 1.34c0 .508.197.985.556 1.344l.984.984a2.91 2.91 0 0 1-2.342-.88 2.935 2.935 0 0 1 .062-4.146Zm-.988 5.045c.044.046.09.09.135.133l-1.827 1.458a3.408 3.408 0 0 0-.644-1.038l1.717-1.37c.169.29.374.565.619.817Zm-6.646 1.636c.324-.471.812-.788 1.374-.891a2.142 2.142 0 0 1 2.492 1.715 2.126 2.126 0 0 1-.342 1.602c-.324.47-.812.787-1.374.89a2.126 2.126 0 0 1-1.601-.341 2.126 2.126 0 0 1-.891-1.374 2.127 2.127 0 0 1 .342-1.601Z"/><path d="M19.114 12.06a1.69 1.69 0 0 0 1.274.272 1.69 1.69 0 0 0 1.093-.708 1.69 1.69 0 0 0 .271-1.274 1.69 1.69 0 0 0-.708-1.093 1.704 1.704 0 0 0-1.93 2.804Zm.89-1.805a.412.412 0 0 1 .308.066.41.41 0 1 1-.307-.066ZM15.984 28.27h-1.729a.645.645 0 1 0 0 1.292h1.729a.646.646 0 0 0 0-1.292ZM35.183 28.27h-1.73a.646.646 0 1 0 0 1.292h1.73a.646.646 0 0 0 0-1.292ZM7.246 5.403 1.073 4.07A.647.647 0 0 0 .8 5.333L7.506 6.78c.092.22.206.431.344.632a3.41 3.41 0 0 0 2.203 1.428c.034.007.068.011.102.017v.274h-.291a3.238 3.238 0 0 0-3.235 3.234v1.551c0 .233.126.447.328.562l.992.562A2.926 2.926 0 0 0 10.8 18.6a2.925 2.925 0 0 0 2.853-3.555l.994-.569a.645.645 0 0 0 .325-.56v-1.551a3.237 3.237 0 0 0-3.234-3.234h-.292v-.32c.416-.095.814-.27 1.175-.519a3.408 3.408 0 0 0 1.43-2.203 3.435 3.435 0 0 0-2.752-3.997 3.408 3.408 0 0 0-2.568.548c-.18.124-.346.264-.497.416L1.073 1.51A.646.646 0 0 0 .8 2.772L7.48 4.214a3.47 3.47 0 0 0-.235 1.189ZM10.8 17.309c-.9 0-1.631-.732-1.631-1.63 0-.9.732-1.632 1.63-1.632.9 0 1.631.732 1.631 1.631 0 .9-.731 1.63-1.63 1.63Zm.937-6.886c1.07 0 1.942.87 1.942 1.942v1.177l-.582.333a2.917 2.917 0 0 0-4.592-.003l-.585-.332v-1.175c0-1.071.871-1.942 1.942-1.942h.292v.79a.646.646 0 0 0 1.291 0v-.79h.292ZM9.463 3.704a2.123 2.123 0 0 1 1.601-.342 2.142 2.142 0 0 1 .825 3.866c-.47.324-1.04.445-1.601.342a2.126 2.126 0 0 1-1.374-.89 2.124 2.124 0 0 1-.342-1.602c.104-.562.42-1.05.89-1.374Z"/><path d="M10.367 7.14a1.705 1.705 0 0 0 1.982-1.365 1.69 1.69 0 0 0-.271-1.273 1.703 1.703 0 1 0-1.71 2.639Zm-.095-1.748a.41.41 0 1 1 .808.15.41.41 0 0 1-.807-.15Z"/></g><defs><clipPath id="a"><path fill="#fff" transform="translate(.29)" d="M0 0h44.086v44H0z"/></clipPath></defs></svg>