<svg width="51" height="44" fill="none" xmlns="http://www.w3.org/2000/svg"><path d="M36.941 39.45a.987.987 0 0 0 1.381.036l1.871-1.775h1.928c1.38 0 2.615-.713 3.305-1.908a3.776 3.776 0 0 0 0-3.816l-.876-1.518.468.139a.977.977 0 1 0 .556-1.873l-2.444-.725-1.504-2.605a3.777 3.777 0 0 0-3.305-1.908c-1.38 0-2.615.713-3.305 1.908l-1.2 2.08-.127-.528a.976.976 0 1 0-1.9.455l.608 2.53-1.18 2.045a3.777 3.777 0 0 0 0 3.816 3.778 3.778 0 0 0 3.305 1.908h2.832l-.376.358a.977.977 0 0 0-.037 1.38Zm-4.032-4.624a1.843 1.843 0 0 1 0-1.862l1.187-2.056 2.557-.659a.977.977 0 1 0-.487-1.892l-.702.181 1.244-2.156c.337-.583.94-.931 1.613-.931.674 0 1.276.348 1.613.931l1.474 2.552-.723 2.594a.977.977 0 0 0 .679 1.203.987.987 0 0 0 1.203-.679l.208-.749.959 1.66c.337.584.337 1.28 0 1.863s-.94.931-1.613.931h-1.909l-1.865-1.902a.977.977 0 0 0-1.395 1.368l.524.534H34.52a1.843 1.843 0 0 1-1.612-.931ZM39.239 42.486a.986.986 0 0 0-1.354-.27.986.986 0 0 0-.242 1.393.985.985 0 0 0 1.365.203.985.985 0 0 0 .23-1.326Z" fill="#1760B9"/><path d="M13.89.12 1.163 7.12A.977.977 0 0 0 .792 8.47l3.718 6.32c.27.46.86.618 1.323.356l3.994-2.26v21.539c0 .54.438.977.977.977h15.814c1.106 3.49 3.79 6.38 7.194 7.733a.987.987 0 0 0 1.268-.547.977.977 0 0 0-.547-1.269 10.442 10.442 0 0 1-4.956-4.138 10.463 10.463 0 0 1-1.278-7.95.987.987 0 0 0-.117-.742l-1.758-2.867 3.055.003h.001c.298 0 .58-.136.765-.37 2.15-2.705 5.59-4.187 9.034-3.881a10.291 10.291 0 0 1 7.028 3.67 10.29 10.29 0 0 1 2.373 7.565 10.323 10.323 0 0 1-6.45 8.695.977.977 0 1 0 .731 1.812 12.269 12.269 0 0 0 7.666-10.334 12.232 12.232 0 0 0-2.822-8.992 12.232 12.232 0 0 0-8.353-4.362c-.904-.08-1.802-.06-2.68.054v-6.596l3.994 2.26a.977.977 0 0 0 1.323-.355l3.718-6.321a.977.977 0 0 0-.372-1.351L32.71.12a.977.977 0 0 0-.47-.121H14.36a.978.978 0 0 0-.471.12Zm13.415 1.834a3.672 3.672 0 0 1-3.593 2.938H23.2a3.672 3.672 0 0 1-3.593-2.938h7.698Zm-9.676 0a5.626 5.626 0 0 0 5.57 4.892h.513a5.627 5.627 0 0 0 5.57-4.892h2.705l11.626 6.392-2.721 4.626-4.617-2.612a.977.977 0 0 0-1.458.85V19.9a12.37 12.37 0 0 0-5.796 3.772l-4.342-.005h-.001a.977.977 0 0 0-.852 1.452c.007.012.012.024.02.036l2.463 4.02a12.447 12.447 0 0 0-.136 4.274H11.78V11.21a.977.977 0 0 0-1.458-.85l-4.616 2.612-2.721-4.626L14.61 1.954h3.018Z" fill="#1760B9"/><path d="M15.666 14.573h5.311a.977.977 0 0 0 0-1.954h-5.31a.977.977 0 0 0 0 1.954Z" fill="#1760B9"/></svg>