<svg width="22" height="44" fill="none" xmlns="http://www.w3.org/2000/svg"><path d="M21.623 14.89c0-4.065-3.133-7.41-7.11-7.75V5.602h1.464a.668.668 0 1 0 0-1.336h-.043V2.093A2.096 2.096 0 0 0 13.841 0H8.16a2.095 2.095 0 0 0-2.093 2.093v2.173h-.043a.668.668 0 1 0 0 1.336h1.465V7.14c-3.978.34-7.11 3.685-7.11 7.75v.71c0 .26.073.504.2.712a1.37 1.37 0 0 0-.2.712v8.53c0 .364.142.696.374.943-.236.338-.375.749-.375 1.192v1.422c0 .549.213 1.049.56 1.422-.347.373-.56.873-.56 1.422v1.422c0 .549.213 1.049.56 1.422-.347.374-.56.874-.56 1.422v1.423c0 .548.213 1.048.56 1.422-.347.373-.56.873-.56 1.422A3.516 3.516 0 0 0 3.89 44h14.222a3.516 3.516 0 0 0 3.512-3.512c0-.549-.213-1.049-.56-1.422.348-.374.56-.874.56-1.422V36.22c0-.548-.213-1.048-.56-1.422.348-.373.56-.873.56-1.422v-1.422c0-.549-.213-1.049-.56-1.422.348-.373.56-.873.56-1.422v-1.422c0-.443-.139-.854-.375-1.192.232-.247.375-.579.375-.943v-8.53c0-.26-.074-.504-.2-.712.126-.208.2-.451.2-.712v-.71ZM7.402 2.092c0-.417.34-.757.757-.757h5.682c.418 0 .757.34.757.757v2.173H7.402V2.093Zm5.774 3.51V7.11H8.824V5.602h4.352Zm7.11 23.508a.755.755 0 0 1-.753.754.668.668 0 1 0 0 1.336c.416 0 .754.338.754.754v1.422a.755.755 0 0 1-.754.754H5.31a.668.668 0 1 0 0 1.336h14.222c.416 0 .754.339.754.754v1.423a.755.755 0 0 1-.754.754.668.668 0 1 0 0 1.336c.416 0 .754.338.754.754 0 1.2-.976 2.176-2.176 2.176H3.889c-1.2 0-2.176-.976-2.176-2.176 0-.416.338-.754.754-.754h14.221a.668.668 0 1 0 0-1.336H2.468a.755.755 0 0 1-.755-.755v-1.422c0-.415.338-.754.754-.754a.668.668 0 1 0 0-1.336.755.755 0 0 1-.754-.754v-1.422c0-.416.338-.754.754-.754h14.221a.668.668 0 1 0 0-1.336H2.468a.755.755 0 0 1-.755-.754v-1.422c0-.416.338-.755.754-.755h4.105a.668.668 0 1 0 0-1.336H1.758a.045.045 0 0 1-.045-.044V24.09h2.176a.668.668 0 1 0 0-1.336H1.713v-5.73c0-.024.02-.044.045-.044h13.594a.668.668 0 1 0 0-1.337H1.758a.043.043 0 0 1-.044-.043v-.71a6.45 6.45 0 0 1 6.443-6.443h5.688a6.45 6.45 0 0 1 6.443 6.443v.71c0 .024-.02.043-.043.043h-2.219a.668.668 0 1 0 0 1.337h2.218c.024 0 .044.02.044.044v5.73h-2.176a.668.668 0 1 0 0 1.336h2.176v1.464c0 .024-.02.044-.044.044h-11a.668.668 0 1 0 0 1.336h10.29c.416 0 .754.339.754.755v1.422Z" fill="#1760B9"/><path d="M13.132 22.668c.761 0 1.38-.62 1.38-1.381v-1.42c0-.76-.619-1.38-1.38-1.38H8.868c-.761 0-1.38.62-1.38 1.38v1.42c0 .761.619 1.38 1.38 1.38h4.264Zm-4.308-1.381v-1.42c0-.024.02-.044.044-.044h4.264c.024 0 .044.02.044.045v1.419c0 .025-.02.044-.044.044H8.868a.045.045 0 0 1-.044-.044Z" fill="#1760B9"/></svg>