<svg width="44" height="40" fill="none" xmlns="http://www.w3.org/2000/svg"><path d="M42.063 35.148h-.818c-.84-1.4-2.176-2.358-3.972-2.846a.645.645 0 1 0-.34 1.244c1.15.313 2.06.85 2.72 1.602h-3.446c-.854.03-.853 1.26 0 1.29h5.856c.873.03.873 1.288 0 1.319H1.937c-.873-.031-.873-1.289 0-1.32h.723a1.48 1.48 0 0 0 1.16-.572c.772-.972 4.79-1.978 10.177-1.978h.023c.086.002 3.46.09 5.97 2.114a.645.645 0 1 0 .81-1.003c-1.72-1.389-3.74-1.974-5.122-2.22 2.268-1.773 11.289-1.714 12.974.305a1.704 1.704 0 0 0 1.7.585c.89-.2 2.265-.442 3.762-.45a.645.645 0 0 0-.004-1.29h-.004c-1.612.01-3.085.267-4.037.482a.407.407 0 0 1-.409-.131c-.951-1.193-3.666-1.99-7.015-2.08v-9.643c.165-.124.693-.507 1.529-.998 1.373 1.44 2.907 2.172 4.569 2.172.119 0 .239-.004.359-.012 3.967-.246 7.419-4.536 8.719-6.37.43-.57.218-1.542-.454-1.82-4.133-1.83-7.465-2.03-9.904-.594-2.382 1.402-3.201 3.956-3.47 5.229-.546.306-.998.587-1.348.818v-5.067c5.823-2.411 6.184-7.516.173-12.65a1.233 1.233 0 0 0-1.636 0 23.028 23.028 0 0 0-1.633 1.592.645.645 0 1 0 .948.874c.44-.476.945-.97 1.503-1.467 4.708 4.082 5.395 7.981.645 10.237v-1.545l1.577-1.332a.645.645 0 0 0-.832-.985l-.745.629v-.96l1.113-.94a.645.645 0 1 0-.832-.986l-.281.237V5.446c-.03-.854-1.26-.853-1.29 0v1.172l-.28-.237a.645.645 0 1 0-.833.986l1.113.94v.96l-.745-.629c-.671-.528-1.465.412-.832.985l1.577 1.332v1.546c-.957-.46-2.46-1.382-3.033-2.83-.427-1.08-.264-2.315.484-3.67a.645.645 0 1 0-1.13-.624c-2.422 4.199.586 7.343 3.68 8.537v5.067c-.35-.23-.803-.512-1.349-.818-1.27-5.994-6.672-7.769-13.374-4.635-.671.278-.884 1.25-.454 1.82 1.3 1.834 4.752 6.124 8.72 6.37.12.008.24.012.358.012 1.662 0 3.196-.731 4.57-2.172.835.492 1.363.874 1.528.998V30.2c-3.022.09-6.263.808-7.164 2.292-.04.066-.102.106-.165.106h-.029c-4.594 0-9.834.762-11.187 2.465-.02.026-.075.085-.15.085h-.723c-2.584.098-2.582 3.801 0 3.899h40.126c2.584-.099 2.582-3.802 0-3.9ZM28.118 14.046c2.038-1.2 4.935-.995 8.612.611-.98 1.372-4.248 5.559-7.708 5.774-1.328.083-2.534-.416-3.674-1.52.62-.32 1.337-.656 2.137-.979l1.381 1.196a.645.645 0 1 0 .844-.976l-.845-.731a24.913 24.913 0 0 1 1.724-.515l1.35 1.118a.645.645 0 0 0 .822-.994l-.58-.48a23.313 23.313 0 0 1 2.182-.306.645.645 0 0 0-.118-1.284c-.894.082-1.75.21-2.566.37l.042-.14a.645.645 0 1 0-1.235-.37l-.252.84c-.526.136-1.031.284-1.516.44l.178-.456a.645.645 0 1 0-1.203-.466l-.582 1.502c-.556.22-1.073.448-1.55.673.391-1.097 1.14-2.474 2.557-3.307Zm-13.14 6.385c-3.46-.215-6.727-4.402-7.708-5.774 5.191-2.349 9.546-1.841 11.163 2.694-.475-.225-.99-.451-1.544-.671l-.582-1.502a.645.645 0 1 0-1.203.466l.177.457c-.484-.157-.99-.305-1.515-.441l-.252-.84a.645.645 0 1 0-1.235.37l.042.14a25.069 25.069 0 0 0-2.566-.37.645.645 0 1 0-.118 1.284c.755.07 1.483.174 2.182.306l-.58.48a.645.645 0 0 0 .822.993l1.35-1.117c.602.157 1.178.33 1.724.515l-.845.731a.645.645 0 0 0 .844.976l1.38-1.196c.8.323 1.517.659 2.138.98-1.14 1.103-2.347 1.602-3.674 1.52Z" fill="#1760B9"/></svg>