<svg width="45" height="44" fill="none" xmlns="http://www.w3.org/2000/svg"><g clip-path="url(#a)" fill="#1760B9"><path d="M32.166 3.935c-5.214-5.211-13.72-5.303-19.01.063a13.554 13.554 0 0 0-3.923 9.571v22.182c0 4.78 3.69 8.25 8.775 8.25 2.986 0 5.594-.797 7.345-2.243a.645.645 0 0 0-.82-.994c-2.052 1.694-4.969 1.947-6.525 1.947-4.337 0-7.486-2.927-7.486-6.96v-1.798c4.011 6.404 13.738 4.761 15.61-2.526.964-2.68 1.88-6.153 5.839-9.056.886-.71 2.055-2.078 2.84-3.614v3.99c0 1.389-.787 2.307-1.028 2.555-4.677 4.813-6.934 12.053-7.79 13.677a.644.644 0 1 0 1.14.601c.905-1.717 3.099-8.773 7.574-13.38a5.006 5.006 0 0 0 1.393-3.452v-9.385c0-3.437-1.36-6.854-3.934-9.428Zm-.98 17.413c-3.358 2.471-5.017 5.536-6.295 9.732a7.39 7.39 0 0 1-7.174 5.578c-3.967 0-7.195-3.228-7.195-7.195V13.569c0-3.264 1.262-6.342 3.552-8.666 7.634-7.744 20.678-2.23 20.737 8.464.017 3.038-1.304 5.945-3.625 7.98Z"/><path d="M18.838 5.257a.644.644 0 1 0 .554 1.164c5.076-2.417 11.013 1.309 11.028 7.003 0 1.696-.735 3.342-2.016 4.52a19.88 19.88 0 0 0-4.185 4.275.645.645 0 1 0 1.046.752 18.601 18.601 0 0 1 3.938-4.014l.047-.04a7.465 7.465 0 0 0 2.459-5.533c-.037-6.58-6.922-10.96-12.871-8.127ZM23.685 24.213a.644.644 0 0 0-.872.267 20.1 20.1 0 0 0-1.17 2.64c-1.062 2.957-.916 2.527-1.01 2.883a3.002 3.002 0 0 1-2.916 2.263 2.807 2.807 0 0 1-2.803-2.803V13.569c0-2.201.918-4.32 2.519-5.814a.645.645 0 0 0-.88-.942 9.265 9.265 0 0 0-2.928 6.756v15.894a4.097 4.097 0 0 0 4.092 4.092c1.862 0 3.642-1.166 4.21-3.412l.93-2.587c.305-.849.673-1.68 1.094-2.47a.645.645 0 0 0-.266-.872Z"/><path d="M22.896 17.718c.85-.92 1.783-1.782 2.772-2.56 1.446-1.138.918-3.286-.26-4.463-2.442-2.441-6.617-.704-6.617 2.874v2.536c0 2.16 2.652 3.187 4.105 1.613Zm-2.816-1.613v-2.536c0-2.424 2.778-3.602 4.417-1.962.712.712.867 1.71.689 2.142-.06.143-.168.28-.315.396a25.213 25.213 0 0 0-2.922 2.699c-.676.732-1.869.228-1.869-.739Z"/></g><defs><clipPath id="a"><path fill="#fff" transform="translate(.667)" d="M0 0h44v44H0z"/></clipPath></defs></svg>